<?xml version="1.0" standalone="no"?>
<!DOCTYPE svg PUBLIC "-//W3C//DTD SVG 20010904//EN"
 "http://www.w3.org/TR/2001/REC-SVG-20010904/DTD/svg10.dtd">
<svg version="1.0" xmlns="http://www.w3.org/2000/svg"
 width="1024.000000pt" height="575.000000pt" viewBox="0 0 1024.000000 575.000000"
 preserveAspectRatio="xMidYMid meet">

<g transform="translate(0.000000,575.000000) scale(0.100000,-0.100000)"
fill="#000000" stroke="none">
<path d="M4685 5639 c-52 -5 -131 -22 -185 -40 -109 -35 -281 -126 -336 -175
-38 -35 -50 -42 -38 -22 4 6 3 9 -2 6 -5 -3 -18 -8 -29 -12 -16 -6 -17 -9 -5
-16 8 -5 16 -17 17 -27 1 -15 40 -116 50 -132 2 -2 15 8 30 23 39 39 61 31 98
-36 24 -44 34 -55 43 -46 7 7 12 23 12 38 0 20 2 22 10 10 8 -12 10 -12 10 5
1 14 7 8 21 -20 10 -21 30 -51 43 -65 26 -27 136 -218 136 -235 0 -15 92 -13
98 3 6 18 142 17 142 -2 0 -18 31 -26 100 -26 45 0 58 4 70 21 13 18 24 20
100 18 47 -2 89 -8 93 -13 10 -14 -1 72 -13 99 -5 11 -18 45 -28 75 -31 85
-77 181 -128 267 -79 134 -87 152 -69 159 9 4 24 -1 33 -9 10 -9 39 -17 65
-18 27 -2 50 -6 53 -11 3 -4 15 -8 28 -8 12 0 27 -5 34 -12 6 -6 14 -10 16 -7
5 5 -67 81 -114 120 -37 31 -127 70 -195 85 -33 7 -62 13 -65 12 -3 0 -45 -5
-95 -9z"/>
<path d="M4080 5440 c0 -5 5 -10 11 -10 5 0 7 5 4 10 -3 6 -8 10 -11 10 -2 0
-4 -4 -4 -10z"/>
<path d="M3798 5312 c-110 -2 -118 -4 -118 -22 0 -16 -7 -20 -30 -20 -23 0
-30 4 -30 20 0 15 -7 20 -29 20 -20 0 -30 -6 -34 -20 -4 -17 -14 -20 -61 -20
-43 0 -56 -3 -56 -15 0 -8 -4 -15 -10 -15 -5 0 -10 7 -10 15 0 21 -29 19 -49
-4 -13 -15 -33 -19 -102 -22 -65 -3 -90 -8 -103 -21 -10 -10 -26 -18 -37 -18
-11 0 -19 -7 -19 -16 0 -9 -17 -37 -37 -63 -21 -25 -43 -55 -50 -66 -6 -11
-45 -76 -86 -145 -76 -126 -166 -293 -346 -645 -54 -104 -126 -243 -159 -308
-70 -133 -100 -218 -132 -362 -27 -124 -60 -321 -60 -357 l0 -28 173 0 c119 0
192 5 237 16 108 25 207 92 283 192 56 73 207 369 207 406 0 21 -12 26 -27 11
-17 -17 -73 -20 -73 -4 0 5 -12 9 -27 8 -89 -7 -93 22 -26 148 25 48 55 105
65 126 11 21 35 63 54 92 19 30 34 56 34 59 0 8 99 164 152 239 26 37 48 70
48 73 0 10 258 349 299 393 23 25 45 50 49 57 4 7 52 60 107 119 87 94 128
153 107 156 -4 0 2 4 12 8 33 13 5 16 -116 13z"/>
<path d="M6530 4233 c0 -6 -11 -15 -25 -21 -19 -9 -25 -9 -25 1 0 23 -20 -17
-20 -41 0 -13 -13 -47 -30 -77 -16 -30 -30 -61 -30 -71 0 -9 -11 -42 -24 -73
-140 -332 -176 -404 -228 -464 -27 -31 -28 -31 -43 -13 -8 10 -28 53 -46 95
-17 42 -45 104 -62 139 l-32 63 -3 -34 c-3 -33 -6 -36 -42 -42 -22 -4 -48 -4
-59 0 -30 9 -39 -18 -27 -82 l10 -56 -34 -29 c-19 -15 -40 -28 -46 -28 -25 0
-108 121 -182 265 -47 94 -97 201 -106 231 -4 12 -14 31 -24 42 -17 19 -30 20
-260 21 -305 1 -296 5 -246 -119 48 -120 133 -284 187 -361 60 -85 194 -221
235 -238 44 -18 40 -35 -10 -51 -36 -11 -40 -14 -23 -20 24 -9 1078 -4 1120 5
142 31 287 123 398 252 17 20 17 20 -19 16 -39 -4 -61 -14 -141 -68 -29 -19
-53 -30 -53 -24 0 5 22 34 48 62 106 114 352 541 352 611 0 14 4 26 8 26 5 0
16 17 24 39 l15 38 -264 2 c-146 1 -271 5 -279 8 -8 3 -14 1 -14 -4z"/>
<path d="M7065 3440 c3 -5 15 -10 25 -10 17 0 20 -9 22 -80 2 -45 7 -80 13
-80 6 1 9 18 7 38 -1 20 0 56 3 80 5 33 10 42 26 42 10 0 19 5 19 10 0 6 -27
10 -61 10 -37 0 -58 -4 -54 -10z"/>
<path d="M7220 3354 c0 -72 3 -95 13 -91 8 2 12 22 11 55 -1 29 3 52 7 52 5 0
21 -25 35 -56 14 -30 30 -54 37 -51 7 2 21 27 32 55 11 29 23 52 27 52 4 0 8
-23 10 -52 2 -30 8 -53 16 -56 9 -3 12 20 12 92 0 120 -16 129 -61 31 -16 -36
-33 -65 -38 -65 -5 0 -23 29 -40 65 -45 97 -61 89 -61 -31z"/>
<path d="M3937 2298 c-4 -46 -7 -267 -7 -491 l0 -408 53 7 c28 4 60 11 69 15
9 5 29 6 45 3 28 -6 28 -5 25 40 -2 25 -8 46 -12 46 -24 0 -40 -15 -40 -36 0
-15 -6 -24 -15 -24 -8 0 -15 5 -15 10 0 6 -6 10 -14 10 -10 0 -17 16 -22 48
-4 26 -10 49 -14 52 -4 3 -12 181 -17 397 -5 257 -12 396 -19 403 -8 8 -13
-12 -17 -72z"/>
<path d="M6011 2319 c2 -25 -2 -43 -10 -48 -32 -20 21 -417 57 -429 15 -5 10
44 -11 108 -7 21 -10 95 -9 185 2 158 -3 225 -20 225 -5 0 -8 -18 -7 -41z"/>
<path d="M2697 2055 c-10 -362 -10 -636 0 -644 4 -3 227 -5 496 -3 l487 2 0
85 0 85 -344 0 c-330 0 -411 -4 -401 -20 2 -4 -6 -5 -19 -3 -14 3 -25 -1 -29
-10 -4 -11 0 -13 15 -9 18 4 20 2 15 -19 -4 -13 -7 -30 -7 -36 0 -7 -7 -13
-15 -13 -8 0 -15 9 -15 20 0 14 -7 20 -22 21 -13 0 -17 3 -10 6 19 7 14 23 -7
23 -15 0 -21 -8 -23 -32 -2 -25 -8 -34 -25 -36 -13 -2 -23 1 -23 7 0 6 6 10
13 8 7 -1 13 10 15 26 3 21 -1 27 -17 27 -16 0 -20 -8 -23 -37 -3 -37 -9 55
-29 482 -17 347 -24 362 -32 70z m74 -614 c7 12 11 11 26 -3 16 -17 16 -18
-15 -18 -27 0 -32 4 -31 23 1 19 2 19 6 3 4 -15 7 -16 14 -5z m857 -8 c-15 -2
-42 -2 -60 0 -18 2 -6 4 27 4 33 0 48 -2 33 -4z m-755 -10 c-7 -2 -21 -2 -30
0 -10 3 -4 5 12 5 17 0 24 -2 18 -5z"/>
<path d="M4516 2253 c-3 -26 -6 -228 -6 -448 l-1 -400 83 4 c46 2 86 5 91 8 4
2 6 39 5 81 -1 42 -3 60 -5 40 -3 -24 -9 -38 -18 -38 -8 0 -15 -14 -18 -32
l-4 -33 -1 31 c-2 28 -6 33 -36 38 -31 6 -34 10 -40 54 -3 26 -8 130 -11 232
-5 175 -24 502 -30 508 -1 1 -5 -19 -9 -45z"/>
<path d="M5550 2025 c0 -148 -3 -293 -5 -321 -4 -46 -2 -53 26 -80 l32 -29 -8
180 c-4 99 -7 191 -7 205 0 14 -4 80 -9 148 -17 219 -28 182 -29 -103z"/>
<path d="M7311 2193 c-1 -103 -19 -197 -59 -313 -17 -49 -77 -144 -110 -174
-21 -18 -22 -17 -104 45 -46 35 -84 67 -86 72 -8 18 -33 3 -71 -42 -23 -27
-41 -54 -41 -59 0 -6 15 -22 33 -36 34 -26 59 -34 55 -17 -3 10 48 71 60 71 4
0 23 -17 42 -36 19 -20 46 -42 60 -49 14 -7 36 -25 49 -39 35 -37 54 -32 89
24 116 186 137 317 93 590 -8 54 -9 53 -10 -37z"/>
<path d="M6060 1815 c0 -8 5 -15 10 -15 6 0 10 -10 11 -22 0 -13 3 -17 6 -10
7 18 -5 62 -17 62 -6 0 -10 -7 -10 -15z"/>
<path d="M6360 1680 c0 -7 11 -25 25 -42 14 -16 25 -35 25 -42 0 -7 9 -21 20
-31 24 -22 26 -51 3 -63 -23 -13 -10 -42 16 -35 12 3 21 1 21 -6 0 -6 -4 -11
-10 -11 -5 0 -10 -5 -10 -11 0 -5 5 -7 10 -4 6 3 10 -1 10 -9 0 -9 3 -15 8
-14 4 1 18 -4 32 -10 36 -16 170 -29 285 -26 132 4 181 11 235 36 25 12 56 26
69 32 l23 11 -23 6 c-24 7 -24 7 -1 8 12 1 22 6 22 11 0 6 9 10 20 10 15 0 20
7 20 25 0 16 -6 25 -15 25 -8 0 -15 -6 -15 -13 0 -8 -7 -14 -15 -15 -8 -1 -22
-3 -30 -4 -8 -1 -15 -10 -15 -20 0 -10 -7 -18 -15 -18 -15 0 -16 24 -2 48 5 6
4 12 -2 12 -5 0 -16 7 -25 15 -20 20 -73 25 -116 10 -19 -7 -70 -16 -113 -20
-140 -13 -278 31 -399 127 -21 16 -38 24 -38 18z m283 -267 c-13 -2 -35 -2
-50 0 -16 2 -5 4 22 4 28 0 40 -2 28 -4z"/>
<path d="M7310 1512 c0 -4 5 -13 11 -19 7 -7 1 -14 -21 -23 -28 -12 -30 -16
-24 -44 6 -27 5 -29 -10 -17 -9 7 -16 19 -16 26 0 7 -8 15 -17 18 -10 2 -27 8
-38 12 -11 4 5 -15 35 -43 30 -28 58 -51 63 -52 4 0 27 -18 51 -40 l43 -40 52
49 c28 26 51 52 51 57 -1 15 -111 94 -132 94 -10 0 -21 7 -24 15 -6 16 -24 21
-24 7z"/>
<path d="M5465 1500 c-10 -16 34 -79 58 -85 12 -3 63 -5 112 -3 l90 3 3 31 3
31 -55 -8 c-30 -4 -60 -10 -67 -15 -9 -5 -11 1 -6 23 5 27 4 30 -13 26 -24 -6
-25 -19 -5 -40 21 -21 2 -43 -36 -43 -24 0 -29 4 -29 25 0 14 -4 25 -9 25 -5
0 -11 9 -14 20 -6 21 -22 26 -32 10z"/>
<path d="M6328 1485 c17 -14 36 -25 43 -25 8 0 -3 11 -23 25 -20 14 -40 25
-43 25 -4 0 7 -11 23 -25z"/>
<path d="M5546 1057 c-14 -14 -26 -35 -26 -47 0 -11 -4 -20 -10 -20 -5 0 -10
-7 -10 -15 0 -8 4 -15 10 -15 5 0 10 -32 12 -72 2 -46 7 -73 16 -76 9 -3 12
15 12 68 0 63 2 72 20 77 11 3 20 8 20 12 0 3 -9 12 -20 19 -25 16 -25 27 1
53 14 14 18 24 11 31 -7 7 -19 2 -36 -15z"/>
<path d="M4605 1060 c-4 -6 -3 -16 3 -22 6 -6 12 -6 17 2 4 6 3 16 -3 22 -6 6
-12 6 -17 -2z"/>
<path d="M4297 1053 c-11 -10 -8 -243 2 -243 15 0 23 35 21 93 -3 81 -2 84 13
62 8 -11 26 -50 42 -87 15 -38 32 -68 37 -68 5 0 25 36 45 80 20 44 40 80 44
80 5 0 9 -35 11 -77 2 -50 7 -78 16 -81 9 -3 12 25 12 117 0 167 -18 173 -83
26 -20 -44 -40 -81 -44 -82 -4 -2 -21 30 -37 70 -42 103 -60 129 -79 110z"/>
<path d="M5640 1018 c0 -6 -7 -19 -15 -28 -14 -15 -14 -18 0 -30 10 -8 15 -31
15 -71 0 -72 23 -103 59 -80 11 7 9 11 -8 20 -18 10 -21 21 -21 67 0 47 3 57
20 61 25 7 26 23 1 30 -11 3 -21 13 -24 24 -6 21 -27 26 -27 7z"/>
<path d="M5770 985 c0 -8 5 -15 10 -15 6 0 10 7 10 15 0 8 -4 15 -10 15 -5 0
-10 -7 -10 -15z"/>
<path d="M4604 977 c-10 -27 1 -160 14 -165 9 -3 12 18 12 82 0 78 -12 118
-26 83z"/>
<path d="M4713 975 c-13 -9 -28 -33 -34 -54 -9 -31 -8 -43 5 -70 20 -38 55
-56 90 -47 35 9 33 26 -3 26 -40 0 -61 24 -61 69 0 47 14 61 62 61 29 0 36 3
32 15 -8 20 -63 20 -91 0z"/>
<path d="M4905 980 c-3 -6 -17 -7 -31 -4 l-24 6 0 -86 c0 -70 3 -86 15 -86 12
0 15 13 15 56 0 64 13 94 40 94 11 0 20 7 20 15 0 17 -25 20 -35 5z"/>
<path d="M4985 965 c-19 -19 -25 -35 -25 -70 0 -26 6 -52 13 -59 64 -65 157
-26 157 66 0 78 -91 118 -145 63z m101 -22 c31 -41 6 -113 -40 -113 -48 1 -72
47 -50 98 11 26 19 32 45 32 19 0 37 -7 45 -17z"/>
<path d="M5189 978 c-38 -31 -24 -72 35 -105 30 -17 13 -46 -24 -41 -34 5 -42
-17 -10 -27 32 -10 75 16 78 48 3 22 -3 31 -32 48 -47 27 -49 59 -5 59 20 0
29 4 27 13 -6 17 -50 20 -69 5z"/>
<path d="M5329 961 c-21 -22 -29 -39 -29 -66 0 -27 8 -44 29 -66 33 -33 47
-35 96 -15 25 11 36 23 43 48 27 100 -69 169 -139 99z m99 -13 c7 -7 12 -31
12 -55 0 -45 -17 -63 -59 -63 -23 0 -51 35 -51 65 0 51 65 86 98 53z"/>
<path d="M4294 716 c-2 -6 -3 -153 -2 -326 l3 -315 30 0 30 0 5 265 c3 146 7
267 8 269 1 2 80 -117 175 -265 l173 -269 44 0 45 0 3 323 2 322 -25 0 c-14 0
-28 0 -32 0 -5 0 -10 -120 -13 -267 l-5 -268 -80 123 c-44 68 -120 185 -168
260 -49 75 -92 141 -97 145 -12 13 -91 16 -96 3z"/>
<path d="M4964 715 c-3 -6 -3 -152 -2 -325 l3 -315 168 -3 167 -2 0 34 0 35
-132 3 -133 3 0 110 0 110 115 5 115 5 0 30 0 30 -115 5 -115 5 -3 96 c-2 71
1 99 11 107 7 7 62 13 127 14 103 3 115 5 118 22 2 10 -1 23 -8 30 -14 14
-311 16 -316 1z"/>
<path d="M5378 713 c-5 -7 -8 -20 -6 -30 3 -15 17 -19 93 -23 l90 -5 3 -288
c3 -312 2 -307 57 -293 l25 6 2 288 3 287 85 1 c66 1 87 5 95 18 6 11 7 21 0
31 -8 14 -43 16 -223 18 -156 1 -216 -1 -224 -10z"/>
<path d="M4092 148 c-7 -7 -12 -24 -12 -40 0 -50 66 -62 91 -17 23 43 -44 92
-79 57z"/>
</g>
</svg>
